<svg width="22" height="22" viewBox="0 0 22 22" fill="none" xmlns="http://www.w3.org/2000/svg">
<path fill-rule="evenodd" clip-rule="evenodd" d="M16.0661 2.20598C16.0692 1.84149 15.7763 1.54349 15.4118 1.54038C12.3507 1.51427 10.601 3.00027 10.3656 5.83106C9.39195 5.3305 8.2533 5.16005 7.07764 5.34626C4.05333 5.82527 2.20433 8.37376 2.72837 11.6824C3.3638 15.6944 6.73919 20.6307 9.43094 20.2044C10.0079 20.113 10.5323 19.8075 10.9985 19.3203C11.4647 19.8075 11.9891 20.113 12.566 20.2044C15.2578 20.6307 18.6332 15.6944 19.2686 11.6824C19.7927 8.37376 17.9437 5.82527 14.9193 5.34626C13.7911 5.16756 12.4987 5.18728 11.6942 5.73553C11.913 3.76445 13.084 2.84057 15.4005 2.86033C15.765 2.86344 16.063 2.57048 16.0661 2.20598Z" fill="#454F5B"/>
</svg>
