<svg width="22" height="22" viewBox="0 0 22 22" fill="none" xmlns="http://www.w3.org/2000/svg">
<path fill-rule="evenodd" clip-rule="evenodd" d="M12.76 1.76001H9.24001C8.24479 1.76001 7.40392 2.42084 7.13225 3.32763C4.12223 3.61756 1.76882 6.15395 1.76882 9.24001V15.1653C1.76298 15.2428 1.76001 15.321 1.76001 15.4V17.16C1.76001 18.861 3.13897 20.24 4.84001 20.24H5.28001V12.32H4.84001C4.18947 12.32 3.58603 12.5217 3.08882 12.866V9.24001C3.08882 6.87709 4.86273 4.92849 7.15147 4.65329C7.44189 5.52862 8.26721 6.16001 9.24001 6.16001H12.76C13.7337 6.16001 14.5596 5.52746 14.8493 4.65088C17.1479 4.91694 18.9324 6.87009 18.9324 9.24001V12.8807C18.4312 12.5275 17.8198 12.32 17.16 12.32H16.72V20.24H17.16C18.861 20.24 20.24 18.861 20.24 17.16V16.5H20.2524V9.24001C20.2524 6.14651 17.8876 3.60534 14.8672 3.32558C14.5948 2.41984 13.7545 1.76001 12.76 1.76001ZM7.48001 12.32H6.16001V20.24H7.48001C7.72301 20.24 7.92001 20.043 7.92001 19.8V12.76C7.92001 12.517 7.72301 12.32 7.48001 12.32ZM14.52 12.32H15.84V20.24H14.52C14.277 20.24 14.08 20.043 14.08 19.8V12.76C14.08 12.517 14.277 12.32 14.52 12.32Z" fill="#454F5B"/>
</svg>
